<svg xmlns="http://www.w3.org/2000/svg" width="312.477" height="55.367" viewBox="0 0 312.477 55.367"><path d="M159.73 21.848c-.37-1.735-.423-3.52-1.013-5.234-.48-1.393-1.92-5.072-2.122-5.54-.92-2.174-2.382-4.016-3.915-5.786-1.324-1.52-3.018-2.636-4.822-3.605-1.59-.85-3.197-1.657-5.036-1.68-1.382-.017-2.782.013-4.157.277-.457.09-2.394.603-2.666.7-1.31.467-2.58.993-3.83 1.616-3.41 1.7-7.13 6.097-8.09 7.415-1.89 2.59-3.95 8-4.43 9.19-.86 2.16-1.15 11.89-.87 14.9.14 1.54 1.37 6.28 3.26 9.86 1.32 2.51 5.36 6.63 7.36 8.04 1.57 1.11 3.35 1.79 5.23 2.25 1.36.34 2.72.65 4.27.76 1.52 0 2.99-.19 4.55-.75 1.54-.54 3-1.18 4.39-2 1.87-1.1 3.53-2.45 4.77-4.22 1.1-1.56 1.9-3.29 2.8-4.97.68-1.28 1.35-2.63 1.88-3.98 1.04-2.64 1.75-5.37 2.29-8.15.2-1.02.32-8.08.1-9.07zm-30.787 26.13c-.7-1.024-.06-2.92.77-3.363 1.175-.35 2.26-.35 3.15.683.534.62.638 2.158.123 2.97-.376.596-1.532.89-2.405.653-.64-.17-1.24-.36-1.63-.94zm-5.776-27.583c.538 0 1.013-.085 1.44.012 1.653.383 2.347 2.325 1.22 3.593-.635.72-1.583.76-2.504.51-.926-.262-1.492-.864-1.67-1.778-.156-.772.473-2.138 1.514-2.337zm3.303-3.698c-1.023-.01-1.793-1.003-1.793-2.31.005-1.2.693-1.87 1.943-1.87 1.006-.068 1.928.79 1.95 2.017.025 1.24-1.094 2.17-2.1 2.163zm-2.782 12.317c1.683.028 2.556 1.075 2.638 2.366.086 1.342-1.11 2.384-2.568 2.367-.895-.005-2.143-.67-2.363-1.702-.417-1.934.75-3.02 2.293-3.03zm.574 9.42c.3-.58.9-.686 1.583-.686 1.006.004 1.676.406 2.15 1.234.827 1.43.05 2.744-1.85 2.744-.688-.062-1.55-.17-2.064-1.048-.46-.796-.18-1.55.19-2.243zm12.573 10.907c.125-1.25 1.963-1.9 2.252-1.88 1.394.1 1.982.93 2.19 2.17.146.87-.537 1.92-1.31 2.13-2.09.58-3.252-.7-3.132-2.41zm1.598-4.79c-1.646-.15-3.076-.84-4.365-1.83-.637-.5-1.093-1.15-1.584-1.76-.764-.95-1.22-2.08-1.73-3.18-.895-1.91-2.267-3.75-2.076-7.54.11-1.52.364-3.1.556-4.68.214-1.8.51-3.58.97-5.34.337-1.26 1.1-2.3 1.7-3.43.418-.77.922-1.51 1.44-2.19.34-.45.863-.89 1.377-1.27 1.84-1.32 3.89-2.17 6.13-2.48.85-.12 1.76.07 2.55.54 2.01 1.19 3.84 2.38 4.92 4.37 1.04 1.91 2.27 5.01 2.25 9.3 0 .66-.5 4.74-.83 6.13-.29 1.26-.51 2.55-.96 3.77-.76 2.1-1.67 4.14-3.1 5.91-1.37 1.7-2.97 3.09-5.16 3.67-.68.18-1.38.12-2.06.05zm-2.96-36.54c-.26 2.17-2.3 2.69-3.407 2.24-.98-.39-1.914-1.9-1.59-2.88.34-1.02 1.707-1.47 2.215-1.48.67-.01 1-.04 1.63.2.84.31 1.27 1.03 1.16 1.93zm14.033-.69c1.255-.19 2.48 1.13 2.51 2.47.024 1.03-.86 1.92-1.92 1.92-1.71 0-2.577-.8-2.51-2.38.024-.47.146-.97.48-1.34.37-.41 1.02-.58 1.44-.65zm5.708 7.3c.422.21.666.77.834 1.23.46 1.26-.596 2.63-2.055 2.62-1.867 0-2.867-1.61-2.074-3.24.25-.53 1.07-.86 1.42-.91.69-.09 1.19-.02 1.87.31zm.017 11.43c-1.55-.07-2.46-.94-2.38-2.27-.16-1.32.93-2.22 2-2.04.53.09 1.16.21 1.68.47.77.4 1.09 1.43.89 2.12-.29 1.04-1.24 1.77-2.18 1.73zM144.66 5.83c-.12 1.108-.77 2.304-1.75 2.4-1.21.12-2.237-.117-2.864-1.36-.148-.3-.34-1.426-.23-1.762.516-1.615 2.336-1.797 3.06-1.55 1.033.36 1.785 1.19 1.785 2.273zm.187 39.754c.034-.528.86-1.27 1.393-1.32.652-.057 1.04-.083 1.682.153 1.03.383 1.494 1.178 1.303 2.38-.11.697-1.264 1.527-2.275 1.527-1.52 0-2.184-1.427-2.103-2.74zm4.81-6.406c-.122-1.33.752-1.864 1.948-1.904.92-.035 2.075 1.228 2.075 2.214.007 1.24-.763 2.146-1.866 2.084-1.237-.073-2.168-.822-2.157-2.394zm2.78-7.426c-.028-.152-.005-.31-.005-.468.058-.794.4-1.54 1.39-1.715 1.448-.26 1.884.5 2.444 1.07.764.77.63 2.32-.3 2.94-.66.44-1.355.77-2.187.34-.91-.47-1.19-1.28-1.35-2.18zm-38.86-10.808c-.27-1.742-.362-3.49-.982-5.198-.703-1.94-1.528-3.786-2.736-5.427-.89-1.2-6.23-7.47-12.6-8.85-1.36-.3-2.68-.23-4.04-.11-1.42.13-6.74 1.85-7.99 2.8-2.22 1.68-4.01 3.76-5.82 5.82-1.43 1.61-2.36 3.57-3.35 5.46-.28.52-2.26 4.69-2.8 7.8-.4 2.25-.55 9.9.13 13.46.51 2.65 2.04 6.85 3.18 9 2.15 4.08 6.96 7.54 8.8 8.19 2.21.78 4.48 1.44 6.85 1.44 7.04 0 12.2-4.81 13.49-6.19 1.11-1.19 4.19-5.49 5.55-8.53 1.35-3.02 2.77-11.91 2.68-13.51-.03-.5-.23-5.1-.4-6.2zm-10.174 18.81c.955-.796 2.895-.318 3.41 1.22.072.214.232.43.16.665.084.82-1.057 1.69-1.836 1.63-.665-.05-1.29-.3-1.857-.66-.763-.51-.64-2.22.123-2.86zM88.833 6.698c.182.07.375.1.56.16.984.335 1.232.686 1.232 1.713 0 .96-.4 1.53-1.302 1.85-.78.28-1.7.03-2.187-.67-.584-.84-.594-1.39-.11-2.27.176-.33 1.13-1.03 1.808-.77zm-.77 8.28c1.51-1.89 4.316-3.59 7.933-3.582 2.043.346 3.777 1.22 5.315 3.15 1.16 1.455 4.24 6.277 4.17 9.134-.2 8.095-2.6 13.972-3.6 15.705-2.19 3.79-6.31 6.193-8.89 6.012-2.08-.147-3.85-.61-5.41-1.797-1.26-.96-2.13-2.318-2.73-3.807-.82-2.026-1.78-8.224-1.77-9.192.01-1.26-.14-6.07 1.38-9.63.97-2.26 2.79-4.95 3.62-5.99zm8.29-10.403c.547.142.814.07 1.26.514.67.66.797 2.74.176 3.25-.49.4-.95.62-1.58.33-.7-.33-1.31-.67-1.55-1.51-.23-.79.07-1.4.48-1.97.34-.49.62-.43 1.2-.63zm11.632 14.133c-1.307.066-2.17-.884-2.2-2.284-.03-1.33.61-1.797 1.38-1.797 1.907.01 2.578.494 2.578 1.922.01 1.48-.714 2.11-1.758 2.15zm-3.84-6.187c-.967.17-2.02-.51-2.466-1.49-.39-.85-.44-1.67.03-2.48.26-.44 1.43-.79 2.17-.48.79.33 1.73 1.17 1.63 2.33 0 1.19-.51 1.98-1.38 2.13zM80.472 31.53c.007.06-.01.132.007.193.42 1.576-.08 1.653-1.58 2.03-.08.02-.18 0-.27 0-.88-.043-1.55-.383-2.05-1.15-.58-.893-.33-1.73.06-2.57.19-.393.62-.33.97-.393 1.26-.225 2.65.428 2.83 1.89zm2.682-14.93c-.78.247-1.655 0-2.055-.59-.34-.483-.62-.96-.64-1.592-.05-1.308.6-1.753 1.81-1.758 1.62-.05 2.15 1.06 2.28 2.197.06.528-.79 1.546-1.4 1.743zm-4.066 3.84c1.68.042 2.753 1.472 2.323 3.103-.23.917-.89 1.38-1.97 1.38-1.3.004-2.21-.86-2.28-2.17 0-.045.01-.09 0-.13-.21-1.465.46-2.22 1.94-2.185zm-1.6 18.765c.11-.423.11-.89.518-1.215.384-.312.808-.28 1.203-.274 2.04-.153 3.24 2.078 2.4 3.89-.21.445-.72.468-1.15.616-2.17.736-3.35-1.583-2.98-3.017zm6.237 6.828c.774-.603 1.868-.19 2.28.31.543.66.73 2.22.347 2.965-.11.217-.23.354-.507.43-1.615.44-2.855-.07-2.736-1.95-.02-.657.03-1.3.61-1.752zm7.163 3.694c.05-.317-.033-.675.105-1.043.21-.56 1-.92 1.642-1.075.874-.14 1.594.38 1.83 1.25.087.32.087.63.12.95.14 1.29-.707 1.72-1.752 1.86-1.312.17-1.945-.49-1.945-1.95zm8.758-4.63c1.297 0 2.072.955 2.104 2.46.027 1.367-.812 1.647-2.027 1.742-1.02.08-1.834-.94-1.84-2.15-.006-.96.927-2.05 1.763-2.06zm6.573-12.158c0-1.09.69-1.69 1.75-1.78 1.54-.14 2.45.79 2.45 2.32.02 1.52-.76 1.9-1.79 1.97-1.41.1-2.44-1.01-2.42-2.52zm1.27-7.24c-.32-.94.13-1.69.47-2.45.21-.49 1.28-.6 1.97-.33 1.12.43 1.23 1.16 1.38 2.37.01 1.06-.56 1.74-1.55 1.87-1.05.13-1.95-.5-2.28-1.47zM67.85 2.16c-.063-.622-.312-1.03-.98-1.146C65.2.73 57.64.77 57.355.77c-1.24.02-1.467.29-1.384 1.508.09 1.272.21 2.548.16 3.822-.07 1.89-.07 8.11-.14 9.302-.17 2.78.18 5.55-.05 8.323-.12 1.495-.28 27.453-.24 29.315.01.612.31.94.95.957 2.53.075 5.15-.124 7.69-.216.68-.02 3.23.09 3.23-.75.01-.49-.02-.99.04-1.48.15-1.49-.1-8.8-.08-10.96.02-1.27-.23-10.51-.1-11.66.14-1.28.03-2.6.07-3.9.06-2.02.28-7.21.36-7.77.24-1.65.15-13.99.03-15.07zm-7.402 36.41c.158-.093.42-.247.652-.444.045.01.553-.13.592-.17.215-.006.424.01.633.106.947.438 1.812 2.116 1.613 3.172-.106.59-1.04 1.61-1.578 1.723-.707.156-2.043-.285-2.386-.844-.23-.374-.31-.818-.432-1.246-.266-.95.05-1.792.906-2.293zm2.276-4.47c-.564.155-1.096.33-1.69.107-1.135-.415-1.74-1.56-1.476-2.763.14-.64.205-1.28.814-1.7.326-.228.274-.44.908-.617 1.016-.34 2.383.637 2.77 1.845.068.22.094.45.152.674.305 1.234-.244 2.106-1.478 2.452zm-.443-8.943c-1.56-.087-2.5-.777-2.56-2.35-.05-1.31.98-2.473 2.12-2.473 1.24-.007 2.48 1.31 2.49 2.64.02 1.23-.86 2.26-2.05 2.18zm.12-8.74c-1.03.13-2.11-.71-2.42-1.91-.25-.96-.22-1.864.51-2.67.4-.423.92-.363 1.37-.41 1.22-.145 2.71 1.24 2.73 2.443.02 1.08-1.12 2.407-2.19 2.548zm-.58-8.5c-1.16.02-2.22-.603-2.1-1.835-.01-1.015.74-2.036 1.54-2.01 1.44.043 2.6.75 2.67 2.012.07 1.01-.89 1.814-2.11 1.83zM59.73 46.92c.417-.756 1.24-.602 1.95-.63.737-.032 1.225.305 1.57.966.435.84.96 1.6.837 2.626-.147 1.204-1.557 2.153-2.748 1.882-1.53-.35-1.96-1.72-2.17-2.866-.04-.716.23-1.376.56-1.978z" fill="#EBC010"/><path d="M52.2 6.934c-.104-.476-.435-.893-.956-1.206-.942-.57-2.008-.845-3.322-.845-1.532.015-2.57.594-3.27 1.82-.983 1.73-1.218 3.56-1.325 5.282-.01.175-.013.354-.015.534-.003.22-.005.45-.025.66-.16-.51-.29-1.01-.298-1.53-.01-.61-.44-1.02-1.15-1.1l-.1-.01c-.56 0-.57.53-.58.76 0 .07-.01.14-.02.2-.06.27-.16.57-.31.94-.82 1.9-1.6 3.59-2.86 4.95-1.19 1.27-2.51 2.46-4.15 2.46-.76 0-1.58-.25-2.48-.74-.8-.44-.96-.84-.63-1.64l.2-.52c.33-.83.68-1.67.96-2.53.37-1.15.69-2.4.45-3.68-.13-.67-.41-1.58-1.43-1.68-.15-.02-.29-.03-.44-.03-.91 0-1.65.33-2.13.95-1.41 1.82-1.74 3.8-.98 5.87.1.27.22.55.34.83.22.51.44.99.51 1.44.06.4-.32.75-.76 1.14-.25.22-.51.46-.69.72-.1.14-.22.24-.36.31-.37.18-.51.56-.37 1.03.07.24.26.53.76.53.06 0 .11 0 .17-.01.84-.07 1.51-.57 2.04-1.53.16-.3.25-.33.25-.33.05 0 .21.13.32.22l.09.08c1.79 1.45 3.95 1.77 6.23.91 1.59-.6 2.91-1.79 4.16-3.75.49-.77.95-1.56 1.44-2.4.11-.19.23-.39.35-.59l.13.53c.22.88.42 1.71.64 2.53.19.723.73 1.15 1.31 1.02.58-.13.6-.77.62-1.15v-.17c.05-.77.1-1.54.14-2.316.08-1.48.16-3.01.32-4.51.25-2.31 1.07-3.25 3.23-3.72.07-.016.14-.02.23-.02.8 0 1.87.693 2.12 1.375.12.33.36.41.51.46.03.01.06.02.09.032.08.04.15.06.23.06.3 0 .39-.285.43-.39.01-.025.01-.05.02-.06.27-.404.37-.84.27-1.26zm-21.26 4.643c-.19 1.573-.703 3.128-1.6 4.857-.902-1.82-.918-3.423-.058-5.008.204-.375.548-.52.943-.66.05-.018.102-.027.15-.027.137 0 .27.06.376.18.15.16.22.41.19.65zm-4.844.05c.003-.4.007-.812-.205-1.253-.22-.477-.46-.905-.88-.905-.3 0-.57.22-.91.58-.46.49-.76 1.06-1.06 1.62-.19.36-.37.69-.59 1.01-1.53 2.22-2.34 4.74-2.99 7.12-.06.21-.1.44-.14.66-.09.48-.18.94-.43 1.35-.39-.58-.57-1.23-.76-1.87l-.05-.18c-.34-1.18-.62-2.4-.9-3.57-.3-1.31-.61-2.66-1.01-3.98-.07-.24-.3-.98-.97-.98-.22 0-.46.08-.74.24-1.99 1.13-4.27 1.43-6.48 1.72l-.16.02c-.67.09-1.37.05-2.27-.13-.62-.13-1.24.15-1.42.66-.07.21-.02.49.14.72.17.23.42.37.74.37l.08-.01c.61 0 .98.43 1.41.93 1.46 1.69 1.62 3.81 1.59 5.68-.01.86-.18 1.45-.51 1.78-.57.58-1.45.93-2.37.93-1.07 0-1.95-.47-2.36-1.25-.23-.43-.4-.85-.53-1.3-.63-2.19-.45-3.97.56-5.6.04-.06.1-.13.17-.2.21-.23.48-.52.42-.87-.04-.22-.19-.4-.45-.54-.12-.07-.25-.11-.38-.11-.43 0-.73.36-1 .67l-.19.22c-.08.07-.09.16-.08.18-.47.58-.58 1.26-.7 1.91-.04.23-.07.45-.13.67-.4 1.55-.3 3.16.27 4.68.77 2.052 2.19 3.144 4.21 3.245.09.005.17.01.26.01 2.07 0 3.86-1.207 4.15-2.8.49-2.608.05-5.186-1.28-7.66l-.03-.068c-.03-.05-.06-.12-.09-.17.04-.01.08-.01.15-.01.17-.01.33-.07.46-.13.09-.04.17-.07.24-.08 2.08-.3 3.99-.87 5.684-1.7.14-.07.21-.08.24-.08.04 0 .09.05.21.25.19.31.23.67.27 1.05.02.24.05.5.12.75.21.77.404 1.555.596 2.34.23.945.47 1.926.75 2.88.38 1.31.795 2.57 1.7 3.62.32.376.63.455.83.455.374 0 .69-.27.87-.74.1-.26.17-.526.23-.785l.09-.33c.11-.39.214-.79.32-1.18.47-1.783.96-3.63 1.774-5.33.236-.49.49-.98.75-1.46.366-.69.744-1.4 1.06-2.14.32-.75.49-.81.66-.81.2 0 .494.12.76.23l.39.17v-.58z" fill="#858D8E" stroke="#858D8E" stroke-width=".5" stroke-miterlimit="10"/><path d="M288.42 9.405c-.52-.155-1.186-.255-1.487.602-.364 1.003-.848 1.98-1.35 2.927-1.595 2.982-3.3 5.92-4.823 8.937-1.35 2.68-2.49 5.46-3.794 8.17-.812 1.7-1.733 3.35-2.626 5.01-.09.18-.265.3-.402.44-.018-.19-.062-.37-.062-.56.026-3.12.026-6.24.09-9.35.073-3.5.184-7 .302-10.5.054-1.72.228-3.45.236-5.18.01-1.22-.684-1.64-1.84-1.26-1.042.33-1.56 1.03-1.598 2.13-.092 2.43-.21 4.85-.292 7.28-.22 5.73-.51 11.47-.593 17.21-.07 4.69.11 9.37.19 14.06h-.12c.03.61-.01 1.24.1 1.84.05.25.4.63.61.62.91-.02 2.27-1.26 2.4-2.16.12-.86.12-1.76.18-2.63.11-1.61-.08-3.32.41-4.8.81-2.4 2.04-4.65 3.13-6.94.22-.46.6-.85.91-1.28.19.45.39.89.58 1.34.03.08.08.14.1.21 1.29 3.09 2.55 6.19 3.87 9.27.96 2.217 1.96 4.42 3.04 6.59.21.43 1 1.02 1.23.91.52-.25 1.02-.82 1.22-1.37.18-.483.1-1.204-.13-1.68-1.36-2.672-2.73-5.32-3.86-8.11-1.23-3.052-2.9-5.943-4.28-8.943-.23-.54-.18-1.395.09-1.934 2.97-5.97 6-11.91 8.99-17.87.28-.56.4-1.26.36-1.89-.02-.37-.4-.93-.74-1.03zm-33.158-.365c-1.25.51-2.453 1.313-3.447 2.235-2.106 1.942-2.98 4.578-3.784 7.25-2 6.648-3.26 13.35-2.25 20.327.5 3.52 1.27 6.922 3.23 9.986 1.62 2.508 3.67 3.857 7.01 2.553 2.74-1.06 4.04-3.21 4.71-5.89.08-.29-.07-.91-.17-.92-.46-.06-1.11-.13-1.38.13-.44.42-.71 1.07-.9 1.66-.46 1.51-1.67 2.48-3.19 2.47-1.59-.01-1.98-.37-2.48-2.4-.02-.1-.06-.21-.07-.32-.55-4.03-1.1-8.06-1.66-12.09.2-5.08.64-10.08 1.96-14.95.61-2.24 1.25-4.5 3-6.23 1.32-1.32 2.83-1.26 4.05.11.69.78 1.08 1.62 1.06 2.66-.01.39-.02.91.2 1.16.36.44.91.72 1.38 1.07.27-.41.69-.81.76-1.25.26-1.65-.34-3.16-1.04-4.61-1.02-2.09-4.83-3.78-6.94-2.91zm-17.245 32.976c-1.002-6.064-2.06-12.12-3.082-18.184-.757-4.487-1.505-8.964-2.216-13.46-.14-.875-.57-1.46-1.39-1.55-.91-.1-1.38.62-1.63 1.368-1.01 2.99-1.97 6-2.95 9.01-1.62 4.98-3.23 9.958-4.83 14.938-1.08 3.347-2.14 6.712-3.19 10.068-.56 1.76-1.08 3.538-1.62 5.298.11 1.414.41 1.915 1.5 1.96 1.03.045 1.26-.775 1.44-1.596.11-.493.31-.958.43-1.45.77-3.174 1.51-6.356 2.31-9.52.07-.293.48-.722.73-.722 3.11.037 6.23.155 9.35.19.79.01.99.41 1.09 1.05.45 2.79.94 5.572 1.38 8.372.12.82.11 1.668.26 2.48.31 1.732.62 1.888 2.29 1.33.07-.026.15-.08.21-.062 1.49.483 1.14-.675 1.06-1.313-.35-2.744-.74-5.48-1.19-8.207zm-13.88-7.797c1.724-4.76 3.41-9.53 5.116-14.29.438-1.23.866-2.47 1.313-3.7.055-.15.183-.28.282-.41.02.12.037.26.056.4.538 4.1 1.058 8.21 1.64 12.31.247 1.76.62 3.49.94 5.24-.09 1.53-.21 1.61-1.77 1.58-2.28-.03-4.568-.05-6.848.01-1.057.02-1.012-.37-.728-1.16zm-10.67-24.58c-.337-.09-1.03.22-1.16.53-.344.83-.78 1.82-.645 2.66.54 3.27.256 6.53.028 9.78-.392 5.61-.867 11.23-1.322 16.85-.027.27-.164.54-.255.8-.138-.22-.3-.43-.402-.67-1.09-2.5-2.12-5.03-3.28-7.49-.82-1.73-1.94-3.34-2.72-5.08-1.53-3.38-2.9-6.83-4.37-10.23-.85-1.97-1.8-3.91-2.66-5.87-.22-.49-.32-1.03-.47-1.55-.47.18-.94.41-1.43.54-.62.16-.91.52-.92 1.15-.02 1.13-.04 2.26-.1 3.38-.21 4.83-.48 9.67-.64 14.51-.08 2.25.08 4.51.04 6.76-.1 4.95-.25 9.89-.39 14.84-.02.76.14 1.34 1.1 1.38.89.03 1.41-.26 1.48-1.18.07-.69.2-1.38.22-2.06.06-3.58.05-7.14.15-10.71.15-4.74.37-9.47.55-14.2h.13V19.1c0-.17.06-.344.1-.52.13.148.31.275.37.45 1.22 3.496 2.39 6.997 3.65 10.47.83 2.29 1.75 4.55 2.69 6.796.61 1.43 1.39 2.79 1.98 4.23 1.31 3.2 2.5 6.44 3.83 9.62.18.42.83.81 1.32.865.27.04.69-.59.94-.98.17-.29.19-.69.23-1.05.51-3.86 1.17-7.71 1.49-11.59.67-8.2 1.17-16.4 1.7-24.61.06-.72-.03-1.48-.24-2.16-.13-.41-.55-.9-.94-1.01zm-28.507.52c-.43-.74-1.304-1.44-2.124-1.7-2.234-.73-4.57-.44-6.575.65-3.94 2.16-5.4 5.98-5.39 10.18.03 4.39 1.99 8.29 4.42 11.9 1.32 1.96 2.78 3.82 4.05 5.79 1.53 2.37 2.36 4.99 2.34 7.83-.04 2.22-.82 4.07-1.92 5.19-1.85 1.89-6.88 1.01-7.96-2.17-.23-.64-.58-1.26-.98-1.82-.33-.47-.85-.39-1 .14-.19.68-.44 1.54-.19 2.11 1.19 2.62 3.17 4.66 6.07 4.96 6.43.65 10.5-4.08 10.53-9.85.02-3.85-1.47-7.48-3.42-10.83-1.42-2.45-3.05-4.78-4.44-7.25-1.69-3.02-2.27-6.36-2.16-9.79.08-2.58 1.59-4.48 3.96-5.35.89-.33 1.62-.23 2.1.56.74 1.23 1.44 2.5 2.08 3.78.3.61.39 1.33.7 1.94.15.3.58.59.92.63.2.02.59-.4.67-.7.17-.61.39-1.33.21-1.89-.49-1.5-1.05-3.02-1.84-4.37zM310.446 9.1c-.43-.74-1.305-1.433-2.125-1.697-2.23-.73-4.56-.438-6.57.656-3.95 2.16-5.41 5.98-5.39 10.18.03 4.39 1.99 8.3 4.42 11.91 1.32 1.96 2.77 3.82 4.05 5.79 1.53 2.37 2.36 4.99 2.34 7.83-.04 2.22-.82 4.07-1.92 5.19-1.85 1.89-6.88 1.01-7.96-2.17-.23-.64-.58-1.26-.98-1.82-.33-.47-.86-.39-1 .13-.19.68-.45 1.54-.19 2.1 1.19 2.62 3.17 4.66 6.06 4.96 6.43.65 10.5-4.08 10.53-9.85.02-3.85-1.48-7.48-3.42-10.83-1.42-2.45-3.05-4.78-4.44-7.25-1.69-3.02-2.27-6.36-2.16-9.79.08-2.58 1.59-4.48 3.96-5.36.88-.33 1.61-.23 2.1.57.74 1.23 1.43 2.49 2.08 3.78.3.61.38 1.33.69 1.94.16.3.59.59.92.63.21.02.6-.41.67-.7.17-.61.39-1.33.21-1.89-.49-1.5-1.05-3.02-1.84-4.38z" fill="#858D8E" stroke="#858D8E" stroke-width=".25" stroke-miterlimit="10"/></svg>